<?xml version="1.0" standalone="no"?>
<!DOCTYPE svg PUBLIC "-//W3C//DTD SVG 20010904//EN"
 "http://www.w3.org/TR/2001/REC-SVG-20010904/DTD/svg10.dtd">
<svg version="1.0" xmlns="http://www.w3.org/2000/svg"
 width="255.000000pt" height="251.000000pt" viewBox="0 0 255.000000 251.000000"
 preserveAspectRatio="xMidYMid meet">

<g transform="translate(0.000000,251.000000) scale(0.100000,-0.100000)"
fill="#000000" stroke="none">
<path d="M0 1255 l0 -1255 1275 0 1275 0 0 1255 0 1255 -1275 0 -1275 0 0
-1255z m1631 1096 c-6 -10 -18 -21 -27 -25 -8 -3 -91 -6 -184 -6 l-167 0 -24
-35 -24 -35 -335 0 -334 0 54 55 54 55 200 3 c111 1 335 3 499 5 289 2 297 1
288 -17z m299 12 c0 -5 -42 -52 -93 -106 -91 -98 -92 -99 -134 -95 l-43 3 91
103 c89 101 91 102 134 102 25 0 45 -3 45 -7z m-355 -73 c-17 -18 -31 -20
-167 -20 -81 0 -148 4 -148 8 0 27 30 32 179 32 153 0 154 0 136 -20z m-945
-60 c0 -5 -25 -10 -55 -10 -30 0 -55 -4 -55 -8 0 -11 158 -22 323 -22 70 0
127 -3 127 -6 0 -4 -25 -35 -55 -69 -30 -34 -52 -65 -48 -68 13 -14 -58 -18
-244 -15 l-198 3 -23 -69 c-13 -38 -20 -71 -17 -74 3 -3 44 -8 90 -10 78 -4
88 -7 118 -35 51 -48 147 -85 147 -57 0 6 -11 10 -25 10 -28 0 -89 35 -119 69
l-19 21 109 0 109 0 50 -45 50 -44 -72 -1 c-42 0 -73 -4 -73 -10 0 -6 28 -10
63 -10 l62 0 120 -120 120 -120 -110 -110 -110 -109 -72 -2 c-50 -1 -70 -5
-67 -14 3 -6 -2 -18 -11 -25 -8 -7 -15 -19 -15 -27 0 -13 18 -15 115 -12 73 3
115 0 115 -6 0 -6 -45 -9 -124 -7 -109 4 -124 2 -130 -13 -6 -15 -1 -17 40
-10 36 5 45 4 42 -7 -3 -9 -19 -12 -51 -10 -28 2 -47 0 -47 -7 0 -6 34 -12 83
-14 l82 -3 -92 -2 c-74 -2 -93 -5 -93 -17 0 -12 22 -15 113 -18 l112 -3 -122
-2 c-81 -1 -123 -6 -123 -13 0 -6 17 -9 43 -7 35 2 42 0 41 -14 -2 -15 7 -18
47 -18 26 0 51 -4 54 -10 4 -6 -33 -10 -104 -10 -74 0 -111 -4 -111 -11 0 -7
19 -10 52 -7 33 2 53 -1 55 -9 3 -8 -14 -11 -58 -10 l-62 2 -28 -81 -29 -82
68 -67 c37 -37 59 -64 49 -61 -11 3 -16 2 -12 -4 3 -6 16 -10 28 -10 17 0 9
13 -48 70 l-69 70 279 0 278 0 -24 -28 c-13 -15 -44 -48 -68 -75 l-45 -47
-163 0 -162 0 -26 -37 -25 -38 136 -3 c126 -2 139 -1 159 18 21 19 33 20 456
20 306 0 438 3 446 11 12 12 36 3 31 -13 -2 -6 -166 -9 -439 -8 -425 1 -436 0
-454 -20 -17 -19 -30 -20 -204 -20 -102 0 -193 -5 -201 -10 -10 -6 -20 -4 -30
5 -8 7 -35 19 -60 25 -55 15 -112 43 -129 64 -17 20 -41 21 -41 1 0 -8 14 -30
30 -49 21 -23 27 -37 19 -41 -8 -6 -7 -10 2 -16 10 -6 11 -9 2 -9 -7 0 -13 -4
-13 -10 0 -5 12 -10 27 -10 l27 0 -37 -38 c-41 -42 -45 -52 -21 -52 8 0 12 -4
9 -10 -3 -5 0 -10 9 -10 8 0 29 -12 46 -27 29 -24 33 -25 42 -10 8 15 40 17
341 17 l331 0 -38 -39 -39 -40 -286 0 c-284 -1 -286 -1 -305 -24 l-18 -22 281
-3 282 -2 -32 -40 -32 -40 -254 0 c-235 0 -253 -1 -253 -18 0 -23 45 -70 73
-77 12 -2 40 -6 62 -8 37 -3 36 -4 -10 -5 -53 -2 -102 20 -136 61 -24 29 -40
104 -28 134 22 58 1 133 -38 133 -23 0 -53 39 -53 70 0 19 9 40 24 55 25 25
24 35 -4 35 -20 0 -45 26 -55 58 -5 18 -1 30 18 50 14 15 30 38 35 53 11 27 5
76 -9 85 -15 9 -10 24 7 17 8 -3 19 -16 24 -28 8 -21 11 -21 82 -12 40 6 76
15 80 21 13 19 9 105 -6 141 l-15 35 -118 2 -118 2 115 3 116 4 -1 42 c0 23 4
52 8 65 8 22 7 22 -80 22 l-88 -1 -50 -44 c-29 -27 -46 -48 -40 -52 12 -10 16
-43 4 -43 -4 0 -13 -9 -19 -20 -12 -22 -2 -48 34 -89 l21 -25 -35 22 c-38 23
-70 73 -70 110 0 15 27 51 81 106 153 159 156 167 139 336 -30 291 18 541 138
718 l43 62 49 0 c28 0 50 -4 50 -10z m833 -37 c-84 -2 -222 -2 -305 0 -84 1
-16 3 152 3 168 0 236 -2 153 -3z m82 -143 c-34 -35 -45 -40 -84 -40 l-45 0
39 40 c34 35 45 40 84 40 l45 0 -39 -40z m-253 -7 c-40 -2 -103 -2 -140 0 -37
2 -4 3 73 3 77 0 107 -2 67 -3z m-396 -38 c17 -13 -8 -14 -226 -15 -158 0
-241 3 -234 10 5 5 88 11 184 13 96 1 193 4 216 5 23 1 48 -4 60 -13z m1363
-32 c-53 -71 -58 -73 -147 -73 l-83 0 37 45 36 45 85 0 c80 0 85 -1 72 -17z
m-1321 -7 c35 -21 -3 -26 -207 -26 -120 0 -239 3 -265 6 -102 14 -34 24 187
26 269 3 270 3 285 -6z m722 -33 l-335 -3 -50 -49 c-46 -46 -55 -50 -115 -56
l-64 -7 53 61 53 61 396 -2 397 -3 -335 -2z m-670 -18 c11 -13 -22 -15 -284
-15 -256 0 -296 2 -296 15 0 13 38 15 284 15 240 0 285 -2 296 -15z m125 -207
l138 -143 -38 -3 c-43 -4 -51 2 -217 181 l-100 107 40 0 c38 0 45 -6 177 -142z
m795 -62 c0 -19 -17 -29 -25 -16 -8 13 -152 13 -160 0 -4 -6 -62 -9 -148 -8
l-142 2 130 3 c72 2 139 7 150 13 11 5 56 11 100 13 44 2 83 4 88 5 4 1 7 -4
7 -12z m460 -8 c0 -10 -29 -12 -119 -9 l-119 3 -40 -36 c-36 -33 -45 -36 -99
-36 -42 0 -64 5 -73 15 -10 13 -51 15 -246 15 -149 0 -234 4 -234 10 0 6 84
10 233 10 221 0 235 -1 252 -20 14 -15 31 -20 70 -20 45 0 55 4 85 35 l33 34
116 4 c64 1 122 4 129 5 6 1 12 -4 12 -10z m-970 -53 c0 -8 -6 -15 -13 -15
-16 0 -307 -291 -307 -308 0 -6 -7 -12 -15 -12 -20 0 -19 27 0 37 23 13 305
295 305 304 0 5 7 9 15 9 8 0 15 -7 15 -15z m970 -28 c0 -9 -34 -11 -128 -9
-107 3 -130 1 -141 -12 -12 -14 -55 -16 -340 -16 l-326 0 -206 -207 c-114
-115 -209 -216 -212 -225 -4 -11 -12 -15 -22 -12 -19 8 -19 21 0 32 9 4 109
101 224 215 l208 207 325 0 c277 0 327 2 338 15 10 12 38 15 131 15 69 0 120
4 124 10 8 13 25 3 25 -13z m-582 6 c-64 -2 -172 -2 -240 0 -68 1 -15 3 117 3
132 0 187 -2 123 -3z m442 -77 c63 -1 114 -7 112 -12 -3 -11 -234 -5 -247 7
-5 5 -52 9 -104 9 -87 0 -97 -2 -121 -25 -21 -20 -36 -24 -93 -26 -37 -1 -70
1 -74 5 -3 3 25 6 64 6 62 0 72 3 94 26 23 25 25 25 139 19 63 -3 167 -7 230
-9z m-576 -54 c3 -5 -11 -24 -30 -43 l-35 -34 233 -5 233 -6 -237 -2 -236 -2
-45 -47 c-25 -26 -43 -51 -41 -55 9 -14 652 -10 656 4 3 7 12 9 22 5 9 -4 14
-11 11 -17 -4 -6 -134 -10 -362 -10 l-356 0 -71 -76 c-45 -49 -77 -75 -88 -73
-11 3 32 56 154 187 93 100 173 182 178 182 5 0 11 -4 14 -8z m590 -42 l59 0
-39 -44 -39 -44 -82 -1 c-46 -1 -83 2 -83 6 0 4 19 27 43 51 30 31 48 41 62
38 11 -3 46 -6 79 -6z m-229 -211 c0 -10 -11 -13 -45 -11 -36 3 -50 -1 -64
-17 -18 -20 -30 -21 -184 -21 l-166 0 -198 -197 c-109 -109 -198 -193 -198
-188 0 6 88 97 195 203 l194 192 162 0 c153 0 164 1 186 22 20 19 83 39 108
33 6 -1 10 -8 10 -16z m-1588 -125 c-3 -3 -12 -4 -19 -1 -8 3 -5 6 6 6 11 1
17 -2 13 -5z m543 -4 c0 -5 -5 -10 -11 -10 -5 0 -7 5 -4 10 3 6 8 10 11 10 2
0 4 -4 4 -10z m1023 -55 l-58 -65 -181 0 -182 0 -116 -115 c-65 -63 -120 -115
-124 -115 -4 0 47 54 113 120 l120 119 130 1 130 1 55 60 c55 59 55 59 113 59
l58 0 -58 -65z m-794 -61 l-65 -65 -64 3 -64 3 58 63 58 62 71 0 72 0 -66 -66z
m-837 -1 c23 -21 23 -50 0 -62 -16 -9 -18 -6 -14 20 2 16 -1 36 -8 44 -17 20
-1 19 22 -2z m918 -301 c0 -14 -49 -56 -57 -49 -3 4 4 18 17 32 24 25 40 32
40 17z m-171 -72 l105 0 -34 -35 -34 -35 -380 0 -381 0 65 40 65 40 245 -5
c135 -3 292 -5 349 -5z m11 -105 c-7 -8 -21 -15 -31 -15 -12 0 -16 5 -13 15 4
8 17 15 31 15 22 0 24 -2 13 -15z m-125 -135 c-3 -5 -15 -10 -26 -10 -10 0
-19 5 -19 10 0 6 12 10 26 10 14 0 23 -4 19 -10z"/>
<path d="M565 1771 c-71 -18 -114 -52 -140 -114 -19 -45 -19 -74 -1 -110 26
-48 -8 -187 -70 -294 -13 -23 -24 -44 -24 -47 0 -3 42 -6 94 -6 l94 0 24 63
c24 62 24 62 61 59 24 -2 42 2 53 12 17 18 44 21 44 6 0 -6 38 -10 93 -10 l92
0 105 105 105 105 -115 115 c-63 63 -122 115 -131 115 -9 0 -22 -7 -29 -15 -8
-9 -20 -13 -29 -9 -69 28 -167 39 -226 25z m185 -51 c24 -8 24 -8 -6 -9 -68
-2 -109 -72 -79 -132 l16 -29 -41 0 c-22 0 -40 -5 -40 -11 0 -5 5 -7 10 -4 6
4 18 4 26 1 23 -9 -5 -47 -32 -44 -12 2 -29 -3 -38 -11 -15 -12 -20 -11 -46
14 -63 60 -22 152 93 209 51 26 91 31 137 16z m-100 -299 c0 -12 -29 -35 -36
-28 -11 10 5 37 21 37 8 0 15 -4 15 -9z m50 -7 c-8 -8 -22 -19 -32 -25 -16 -9
-17 -7 -6 16 6 14 20 25 31 25 16 0 17 -2 7 -16z m-90 -44 c8 -5 3 -9 -12 -12
-21 -4 -24 -1 -20 20 3 15 7 20 12 12 4 -7 13 -16 20 -20z"/>
<path d="M305 1180 c-4 -6 26 -10 84 -10 49 0 93 5 96 10 4 6 -26 10 -84 10
-49 0 -93 -4 -96 -10z"/>
<path d="M640 1077 c0 -8 13 -13 35 -12 21 0 35 5 35 13 0 7 -14 12 -35 12
-22 0 -35 -5 -35 -13z"/>
</g>
</svg>
