<?xml version="1.0" encoding="UTF-8"?>
<svg version="1.1" viewBox="0 0 2000 2000" width="1280" height="1280" xmlns="http://www.w3.org/2000/svg">
<path transform="translate(0)" d="m0 0h2e3v2e3h-2e3z"/>
<path transform="translate(762,361)" d="m0 0h401l-6 7-9 10-3 1-139 2-12 17-6 9-4 1-99 1h-160l-5 1v1l35 1 4 4 1 4-47 2v3h24l26-1 4 6v2h129l-2 4-13 16-24 28-7 7v1l211 1-2 4-2 1-104 1h-58l-44-1-7 1-167 1-6 12-9 27-3 15 4 1 18 1 47 1 8 10 8 8 14 10 16 8 13 4 12 3-1-7-23-1-14-9-13-11-11-11-2-3v-3l84-1 7 3 6 5v2l4 2 11 11 5 4 9 9v2l-57 1-1 7h50l8 7 87 87 1 4-8 7-79 79-9 2h-39l-4 4-9 14-6 10 79-1 5-3 6 1 3 3v7l-3 4-5 1-5-2-1-3h-20l-65-1-1 5-2 5 19 1 2-4 2-2 8 1 3 4v6l-5 4h-7l-1-3-26-1-2 5-1 3h65l2 2-1 4h-70l-4 9h90l1 3-1 2-3 1h-20l-71-1-2 8 9-1 14-1 2-1h8l2 2v9l-3 3h-8l-2-6h-26l-2 7 80 1 4 4v2l-88 1-3 8 31-1 3-3h6l5 4v7l-5 4h-6l-3-4h-34l-14 39-8 24 2 6 4 2 34 34 8 7 3 3v2h-7l-3-2 4 4 13 2-7-8-20-20-7-8-17-17-2-1v-2l-3-1v-2h48l179 1-1 4-7 7-9 11-14 15-7 8-9 10-6 7-3 1h-131l-2 4-8 12-10 14h111l2-4 8-9 4-5h268l82-1 5-4h6l2 1v2l3 1 1 5-5 6-5 1-3-1-3-3h-335l-12 14-4 4h-102l-41-1-10 4-5 3-5-2-5-5-5-4-20-4-18-6-16-8-11-7-10-9-6-4 2 13 6 12 7 7 9 6-1 4-7 6-2 1h-10l-10-3-7-5-6-10-4-11-3-12 10-7 7-6 7-11 2-6v-19l-5-12-6-8-5-4-24-13-12-11-6-8-5-10-3-10v-7l4-11 4-6 17-17 8-7 10-10 7-8 14-14 9-11 7-10 9-16 5-17v-20l-4-21-3-21-2-21-1-19v-24l2-32 5-39 7-32 7-26 8-23 13-29 13-22 11-16 10-13 7-9 11-13 16-17 7-7z" fill="#FE8ED1"/>
<path transform="translate(744,598)" d="m0 0h24l18 2 25 7 12 4h6l6-7 4-2h12l10 9 80 80-2 4-10 9-2 3h-2l-2 4-7 6-1 2h-2l-2 4-8 7-8 9-7 6-23 23-6 7h-75l-3-10-3-1-2 3h-2l-2 4-2 1h-10l2 4-5 3h-5l-1-4-3 2-4 2-3-2-1-3-9 1-1-2-1 7-6 12-9 27-5 7-3 1h-70l1-5 11-17 12-23 6-15 6-20 5-24 1-7v-21l-7-14-1-7v-16l3-12 7-13 10-12 13-10 12-6 15-5z" fill="#010003"/>
<path transform="translate(649,1068)" d="m0 0h17v1l-19 3-14 7-2 3 24-1-2 4-8 11-5 6h-2v2l-11 9-2 1-1 3 6 1h8l6-1-2 4-8 3-1 2 9 2 14 7 6 5 3 4v2l4-1 7-10h262l4 1-2 4-12 12-7 8-7 7-189 1h-41l-5 5-7 10-2 5 222-1 2-1-13-2v-3l6-7 4-1h16l-1 4-10 11-7 8-8 8-7 8-10 10-86 1h-114l5 12 6 9 8 7 12 6 7 2h35l8-1v2l-13 4-10 2h-20l-17-5-14-7-5-4v-2h-2l-9-12-7-14-4-12v-18l7-21 1-5-1-13-6-12-7-6-17-7-8-7-4-7-1-7 1-11 5-10 7-7 16-8z" fill="#FE8ED1"/>
<path transform="translate(762,361)" d="m0 0h401l-6 7-9 10-3 1-139 2-12 17-6 9-4 1-99 1h-160l-8 1 2-4 12-14 16-17 7-7z" fill="#FF8ED1"/>
<path transform="translate(292,1336)" d="m0 0 35 1 7 21 16 52v3h2l3-10 22-66h33l8 25 15 49v3l2-1 20-62 5-14h33l-2 9-18 55-16 50-3 8-2 1h-35l-4-9-14-44-6-19-5 12-14 43-5 15-2 2h-35l-2-1-12-37-12-36-15-47z" fill="#FEFAFC"/>
<path transform="translate(992,1336)" d="m0 0 35 1 3 8 17 55 3 10v3l2-1 25-75h33l9 29 14 45v3l2-1 20-62 5-14h33l-2 9-19 58-15 47-3 8-6 1h-31l-4-9-14-44-5-17v-3h-2l-3 10-16 49-4 12-2 2h-35l-2-1-12-37-12-36-11-35-4-11z" fill="#FEFAFC"/>
<path transform="translate(568,1334)" d="m0 0 15 1 15 4 12 6 10 8 8 9 7 14 3 12 1 12-2 14-4 11-4 8-11 12-9 7-10 5-9 3-10 2h-20l-17-4-12-6-10-8-8-9-8-16-3-12v-17l3-12 4-9 6-10 11-11 14-8 12-4z" fill="#FEFAFC"/>
<path transform="translate(820,1337)" d="m0 0h73l12 2 12 5 8 7 4 6 2 6v14l-5 10-7 6-2 1v2l11 7 6 8 3 8v15l-5 10-4 5-14 7-14 3-15 1h-64l-1-1z" fill="#FEF9FC"/>
<path transform="translate(653,1336)" d="m0 0h26l5 4 9 16 13 21 17 28h2l11-18 12-20 17-29 1-1h29l1 121-2 2h-30l-1-1-1-62-13 22-10 17-7 11-2 1h-12l-5-4-12-20-13-21-2-5h-2l1 61-2 1h-30l-1-1v-122z" fill="#FEF9FC"/>
<path transform="translate(728,965)" d="m0 0h48l179 1-1 4-7 7-9 11-14 15-7 8-9 10-6 7-3 1h-94l-35-1-1-4 9-1 6 1-7-8-20-20-7-8-17-17-2-1v-2l-3-1z" fill="#FF8ED1"/>
<path transform="translate(1576,1337)" d="m0 0h35v46h47v-46h35l1 3-1 119-1 1h-33l-1-7 1-41h-48v47l-1 1h-33l-1-1z" fill="#FEF9FC"/>
<path transform="translate(709,1080)" d="m0 0h67l137 1 78 1v3l-14 15-14 14h-72l-208-1-28-1 4-4 22-12 16-9z" fill="#FF8ED1"/>
<path transform="translate(1244,1337)" d="m0 0h34l3 5 14 31 18 41 16 36 3 6v4h-35l-5-10-5-13-53-1-3 10-5 13-2 1h-34l1-5 13-29 14-32 19-43z" fill="#FEF9FC"/>
<path transform="translate(1506,1334)" d="m0 0 18 1 16 5 12 7 9 8 1 3-9 9-8 7-3 3-5-2-7-6-9-4-5-1h-11l-10 3-9 7-5 8-3 11v11l3 10 6 9 8 6 9 3h15l10-4 9-7 4-1 5 4 5 5 10 9-2 4-7 7-12 7-11 4-9 2h-22l-16-4-12-6-9-7-7-7-7-11-5-15-1-5v-17l3-13 8-16 9-10 10-7 10-5 14-4z" fill="#FEFAFC"/>
<path transform="translate(596,901)" d="m0 0h27l62 1 3 7 2 9-2 12-6 15-8 11-7 7 6-4 10-11 5-10 4-13 2 2 1 6v25l-4 16-10 2-25 2-20 3-5-1-5-11-5-6-15-8-11-8-7-7-7-10-7-13v-5l8-9 2-1z" fill="#030009"/>
<path transform="translate(1329,1337)" d="m0 0h110v27h-38v95l-1 1h-33l-1-5v-88l1-3h-38l-1-1v-25z" fill="#FEF9FC"/>
<path transform="translate(747,500)" d="m0 0h112l5 3 7 8 5 6 8 7 4 5v3h-218l-1-3 4-12h185l-2-1h-35l-99-1-47-1 1-8 2-5z" fill="#FF8ED1"/>
<path transform="translate(771,616)" d="m0 0h19l18 3 12 6 4 4-9-3-9-2h-11l-12 6-7 6-6 9-2 6v16l4 10 6 8 4 5-6-1h-24l-7 2 19 2 8 3-1 2-9 3-5 5 2 7-10-1-1 2 3 1v3l-4-1-3-3-3 1-1 4-6-1-3 4-4-1-1 6-5-3-8-11-9-9-5-10-2-8v-8l4-13 7-9 9-10 3-3h2v-2l16-12 16-8 12-4z" fill="#FE8DD0"/>
<path transform="translate(1155,732)" d="m0 0 16 1-2 4-7 7-7 8-3 4h-2l-2 4-7 8h187v4l-3 2h-176l-15 1-7 7-7 8-12 13-8 8 1 1 101 1 161-1 2-4 3-2 8 1 3 3-1 7-4 5-11-2h-254l-18 1-7 8-5 6-5 5-15 16-8 8-7 8-8 9-2 1-17 1 2-4 7-7 9-11 11-11 7-8 14-15 15-16 7-8 7-7 1-2h2l2-4 9-9 7-8 13-14 9-11 11-11z" fill="#FF91D2"/>
<path transform="translate(882,565)" d="m0 0h10l8 7 24 24 5 6 29 29v2l4 2 7 8 17 17v2l4 2 4 4v2h2l7 8 4 4-1 2-15 1h-14l-7-2-16-17-8-8v-2l-4-2-7-8-14-14-7-8-8-8v-2h-2l-7-8-12-12-7-8-12-12v-2h-2l-4-6z" fill="#FF8ED1"/>
<path transform="translate(1278,883)" d="m0 0h27l20 1-2 4-8 8-9 11-11 11-7 8-10 10-145 1-8 7-86 86-2 1h-6v-3l98-98 4-1h65l40-1v-2l5-5 14-15 7-8 9-10z" fill="#FEBFE3"/>
<path transform="translate(1442,677)" d="m0 0h8l4 4-1 8-3 3-8-1-1-1h-91l-10 9-1 1-86 1-175 1-100 100h-2l-2 4h-2l-2 4-20 20h-2l-2 4h-2l-2 4-20 20h-2l-2 4-5 5-1 8-4 4h-7l-5-6 1-5 4-4 6-2 8-7 101-101h2l2-4 4-4h2l2-4 6-5 2-3h2l2-4 8-7 4-5h2l2-4 11-11 10-8 258-1 6-5 5-6 4-2h84l6-2z" fill="#FEACDC"/>
<path transform="translate(1083,756)" d="m0 0h22l9 1-1 4-12 13-7 8-12 13-11 12-11 11-7 8-14 15-7 8-12 13-14 15-5 4-2 1h-27l2-5 9-10 7-8 8-8 7-8 12-13 22-24 7-8 9-10 7-8 14-15 4-5z" fill="#4C0DCB"/>
<path transform="translate(986,529)" d="m0 0h320l-2 5-1 1-269 1-7 7-7 8-9 10-7 8-6 7h-2v2l-15 1-39 1 1-4 3-1 2-4 12-13 7-8 10-11 7-9z" fill="#FF8ED1"/>
<path transform="translate(1366,590)" d="m0 0 8 1 6 5-1 7-5 5h-7l-4-4v-2h-229l-4 2-9 11-13 14-7 8-4 3-44 2h-8l2-4 7-8 13-14 14-16 3-4 278-1z" fill="#4C0DCB"/>
<path transform="translate(1096,903)" d="m0 0h16l13 2-2 4-32 32-8 7-64 64-8 7-4 3h-14l-15-2 6-7 3-3h2v-2l8-7 97-97z" fill="#4C0DCB"/>
<path transform="translate(565,1363)" d="m0 0h10l10 3 9 6 6 9 3 8v17l-3 10-7 9-9 6-7 2h-14l-10-4-9-8-5-9-2-9v-9l3-12 7-10 9-6z"/>
<path transform="translate(1192,967)" d="m0 0h17l53 1-1 4-8 8-7 8-10 12-2 1h-95l-14-1 1-3 8-7 22-22z" fill="#4C0DCB"/>
<path transform="translate(807,550)" d="m0 0h12l7 3 6 5v2l4 2 11 11 5 4 9 9v2l-57 1-2 7-4-2v-5l-23-1-14-9-13-11-11-11-2-3v-3z" fill="#FF8ED1"/>
<path transform="translate(1238,361)" d="m0 0h42l-2 4-7 7-9 11-13 13-7 8-8 8-7 8-12 12-7 8-6 5h-24l-13-1 6-7 11-13 12-13 7-8 10-11 7-8 9-10 9-11z" fill="#FF8ED1"/>
<path transform="translate(728,534)" d="m0 0h164l8 7 6 5v2l-51 1h-123l-66-1-1-4 3-9z" fill="#FF8ED1"/>
<path transform="translate(952,906)" d="m0 0h59l-2 4-10 10-7 8-6 7h-2l-2 4-21 21h-56l2-4 12-13 7-8 9-10 10-11z" fill="#FF8ED1"/>
<path transform="translate(625,845)" d="m0 0h62l1 2-5 11-2 8v14l-1 1h-95l-3-1 1-4 10-8 11-9 13-13z" fill="#04000A"/>
<path transform="translate(1357,749)" d="m0 0h24l32 1 13 1-6 7-9 10-7 8-10 11-3 3h-24l-41-1-2-2 11-12 8-10 10-11z" fill="#FEBEE3"/>
<path transform="translate(1303,827)" d="m0 0 5 1 5 5-1 7-5 4-6-1-3-3h-20l-6 4-13 13-7 2h-126l-8 7-108 108-7 6-7 8-26 26-5-1-1-2 7-8 22-22 8-7 8-8 7-8 10-10 8-7 7-8 8-8h2l2-4 8-7 8-9 8-7 10-10 5-6h2l2-4 5-5h2l2-4h2l2-4 16-14h97l34-1 12-13h2v-2l4-2 21-1 5-3z" fill="#FF91D2"/>
<path transform="translate(1445,646)" d="m0 0 6 2 4 5-3 8-2 1h-7l-2-2-5-1h-82l-8 7-19 19h-43l-7-2-5-5-7-6-186-1v-6l7-2h58l56 1h67l10 9 6 5h41l8-8 7-8 6-5 5-5 87-1 5-4z" fill="#FEB2DE"/>
<path transform="translate(1347,511)" d="m0 0h29l39 1-2 4-8 8-7 8-16 17h-70l2-4 5-5 11-12 10-10 5-6z" fill="#FEBDE2"/>
<path transform="translate(1168,547)" d="m0 0h42l26 1v3l-5 5-12 14-9 10-5 5h-68l2-5 12-13 7-8 6-7z" fill="#4C0DCB"/>
<path transform="translate(1016,383)" d="m0 0h126l-2 4-8 8-6 5-79 1h-43l1-4z" fill="#FF8ED1"/>
<path transform="translate(1438,472)" d="m0 0 7 1 3 4v9l-5 5-8-1-3-4-277-1-3-1v-4l2-1 277-1 3-5z" fill="#4C0DCB"/>
<path transform="translate(1261,706)" d="m0 0h80l7 6 4 1h79l1-3 4-1 7 4 1 6-3 5-5 2-6-2-1-3h-41l-42-1-6-6h-79l-8 7-7 8-6 5-6 1h-50l-1-6 1-1 54-1 5-4 7-8 8-8z" fill="#FEB7E0"/>
<path transform="translate(1271,927)" d="m0 0 4 1v2l3 1h-2v2h3l2-4 3 1-4 5-2 1-145 1-8 7-86 86-2 1h-6v-3l98-98 4-1h65l40-1-1 3-4 1 3 1 3-1 29-2 3-1z" fill="#FFB9E1"/>
<path transform="translate(1207,744)" d="m0 0h102l7 1-1 4-5 5-3 5h-113v-3l4-4h2l1-3z" fill="#4C0DCB"/>
<path transform="translate(1124,827)" d="m0 0h83l28 1-1 4-7 7-5 3h-110l-1-3 11-11z" fill="#4C0DCB"/>
<path transform="translate(1067,703)" d="m0 0 2 1-3 5-5 5 3-1 2 1-88 88h-2l-2 4h-2l-2 4-20 20h-2l-2 4h-2l-2 4-20 20h-2l-2 4-5 5-1 8-4 4h-7l-5-6 1-5 4-4 6-2 8-7 101-101h2l2-4 4-4h2l2-4 6-5 2-3h2l2-4 8-7 4-5h2l2-4z" fill="#FFB5DF"/>
<path transform="translate(620,1579)" d="m0 0h19l8 3 5 5 3 5v10l-3 6-8 6-6 2-11 1-8-2-6-3-7-8-1-10 4-8 6-5z" fill="#04000B"/>
<path transform="translate(802,1651)" d="m0 0h18l10 4 4 5 2 4v11l-4 6-5 4-7 3-13 1-10-3-7-6-3-6v-9l4-7 8-6z" fill="#03000A"/>
<path transform="translate(1053,667)" d="m0 0h8l4 5v5l-5 4-7 3-12 11-63 63h-2l-2 4h-2l-2 4-21 21h-2v2h-2v2l-6 5v6l-5 6h-7l-5-5 1-6 3-4 8-1 98-98h2l2-4h2l2-4 6-5 2-3 2-8z" fill="#FFB9E1"/>
<path transform="translate(1368,806)" d="m0 0 8 1 3 3-1 7-4 5-11-2h-120l-1-1-53-1-19-1h-59l-2-2 101-1 2-1 151-1 2-4z" fill="#FF90D2"/>
<path transform="translate(1111,469)" d="m0 0h28l-3 5-9 10-9 11-9 10h-22l-16-1 3-5 12-13 6-7h2l2-4 4-5z" fill="#FF8ED1"/>
<path transform="translate(1124,853)" d="m0 0 4 1-3 1 1 4-8 7-108 108-7 6-7 8-26 26-5-1-1-2 7-8 22-22 8-7 8-8 7-8 10-10 8-7 7-8 8-8h2l2-4 8-7 8-9 8-7 10-10 5-6h2l2-4 5-5h2l2-4h2l2-4 8-7 6-4z" fill="#FEB7E0"/>
<path transform="translate(1168,872)" d="m0 0h16l14 1-2 5-10 11-11 14-6 8-2 1h-22l-10-1 4-6 9-9 9-11 9-10z" fill="#4C0DCB"/>
<path transform="translate(1085,663)" d="m0 0h59l56 1h62l2 2-19 3 20 1v1h-186v-6z" fill="#FF8FD1"/>
<path transform="translate(1214,872)" d="m0 0 28 1-2 4-10 11-13 17-5 6-4 1h-24l-4-2 9-10 12-14 11-13z" fill="#4C0DCB"/>
<path transform="translate(1259,644)" d="m0 0h8l4 5-1 7-4 3h-6l-5-5v-2l-55 1-5 4-5 5-65-1h-47l-2-5 1-1h105l7-1 6-7 62-1z" fill="#FFBFE3"/>
<path transform="translate(915,427)" d="m0 0h218l15 1v4l-2 1h-176l-63-1v-4z" fill="#FF8ED1"/>
<path transform="translate(1328,950)" d="m0 0 7 1 5 3 1 5-2 6-5 3h-7l-4-5h-46l-86-1-7-1 1-3 4-2 134-1z" fill="#4C0DCB"/>
<path transform="translate(1078,680)" d="m0 0h185l1 3-2 3h-187l1-5z" fill="#FFB1DE"/>
<path transform="translate(855,1410)" d="m0 0h37l6 3 3 3 1 3v7l-5 6-5 2-11 1h-25l-1-1z"/>
<path transform="translate(842,1579)" d="m0 0 25 1 7 4v10l-7 6h-2l5 9 2 2 6 2-2 3-8-1-8-11v-2l-10-1h-10v14l-3 1-4-1v-35z" fill="#FF8ED1"/>
<path transform="translate(862,610)" d="m0 0 7 1 79 79 1 4-8 7-54 54-5 3-7 6v-3l5-5 6-7 3-1 7-8 6-7 6-5 6-7 3-1 6-7 2-1 1-3 5-5h2l1-3 4-1 1-6v-4l-68-68-3-5z" fill="#FFADDC"/>
<path transform="translate(1375,1579)" d="m0 0 25 1 6 3 2 7-3 6-6 5 2 4 4 6h5l1 4-5 1-7-3-4-8v-2l-3-1-18-1v13l-1 1h-6v-35z" fill="#FF8ED1"/>
<path transform="translate(550,1579)" d="m0 0 24 1 5 3 3 4v8l-5 5-4 2-25 1v12l-4 1-3-3v-33z" fill="#FF8ED1"/>
<path transform="translate(855,1362)" d="m0 0h31l7 3 3 5v8l-5 5-4 2-9 1h-18l-5-1z" fill="#000001"/>
<path transform="translate(586,887)" d="m0 0h96l2 7v2l-10 1-88-1-1-3z" fill="#010004"/>
<path transform="translate(1228,1036)" d="m0 0h6l2 1v2l3 1 1 5-5 6-5 1-3-1-3-3-209-1 2-2 5-1 7 1h10l5 1v-2h6 2l37-1h136l1-6z" fill="#FFBAE1"/>
<path transform="translate(677,1579)" d="m0 0h5l4 6 7 17 3 6 3 1 3-10 7-19 2-1h6l3 4 8 20 1 5h3l7-15 5-12 2-2h5l-2 6-8 19-5 10-2 2-7-1-7-16-5-14-3 3-8 20-5 8h-5l-4-5-9-21-4-9z" fill="#FF8ED1"/>
<path transform="translate(1442,677)" d="m0 0h8l4 4-1 8-3 3-8-1-1-1-91-1 3-2 4-1 1-1-2-1v2l-8-4 2-1h84l6-2z" fill="#FF8ED1"/>
<path transform="translate(466,1579)" d="m0 0 8 1 13 23 2 5h3l14-27 5-2 5 1 1 4v31h-6l-1-4v-24l-3 4-12 23-2 2-6-1-15-28-1-2v27l-1 3h-5l-1-10v-25z" fill="#FF8ED1"/>
<path transform="translate(1018,1723)" d="m0 0h7l1 1v35h-6v-28h-2l-8 17-7 11-5 1-4-5-13-24-1-1-1 29h-5l-1-1v-19l1-15h9l8 13 8 15h2l15-28z" fill="#FF8ED1"/>
<path transform="translate(1271,927)" d="m0 0 4 1v2l3 1h-2v2h3l2-4 3 1-4 5-2 1h-145v-1l33-1 7 1v-2l-15-1h-24l-7 3-4 2 6-7 4-1h65l40-1-1 3-4 1 3 1 3-1 29-2 3-1z" fill="#FF8ED1"/>
<path transform="translate(1105,1579)" d="m0 0 9 1 13 23 2 5h3l14-27 1-1h9l1 4-1 6 1 25h-6l-1-5v-23l-1-1-7 15-7 13-2 2-6-1-15-28-1-2v28l-1 2h-5l-1-2v-33z" fill="#FF8ED1"/>
<path transform="translate(1199,1579)" d="m0 0h6l4 5 12 24 3 5v2h-6l-3-6-2-1h-22l-5 7h-6l8-16 10-19z" fill="#FF8ED1"/>
<path transform="translate(1622,1650)" d="m0 0 4 1 6 9 12 23 2 4-4 1-4-2-2-7h-25l-2 6-5 3-3-2 9-16 7-14z" fill="#FF90D2"/>
<path transform="translate(1462,1651)" d="m0 0 7 1 10 19 7 12 1 4-3 1-4-2-2-3v-3l-26-1-2 6-2 2h-5l2-5 10-20 6-10z" fill="#FF8ED1"/>
<path transform="translate(1518,1579)" d="m0 0h6l5 8 9 17 4 8v3l-6-1-4-6h-23l-5 7-4 1v-4l8-16 8-15z" fill="#FF8ED1"/>
<path transform="translate(498,1651)" d="m0 0 5 1 5 8 12 23 1 4h-5l-3-5-2-3-23 1-5 7-4 1-2-2 8-14 8-16z" fill="#FF8ED1"/>
<path transform="translate(1016,754)" d="m0 0h2v2l-5 5-8 9-5 4h-2l-1 3-6 5-9 11-14 12-7 9-8 7-12 12-10 11 2 1 2-4 8-7v3l-21 21h-2l-2 4-5 5-1 8-4 4h-7l-5-6 1-5 4-4 6-2 8-7z" fill="#FF90D2"/>
<path transform="translate(1228,1651)" d="m0 0h16l10 5 2 5-6-1-5-3-12-2-8 3-5 4-1 3v8l4 6 4 3 4 1h12l8-4 4-5 1-3h-28l1-3h33v18l-1 1h-5v-6h-2l-9 6-5 1h-12l-8-4-5-4-3-8 1-9 4-6 7-5z" fill="#FE8ED1"/>
<path transform="translate(1013,1579)" d="m0 0h16l10 5 2 5-6-2-7-3-10-1-8 3-5 5-1 2v8l4 6 8 4h13l9-5 3-7h-28l1-3 32-1 1 1v18l-3 2-3-1 1-5-5 1-7 4-5 1h-12l-8-4-7-8-1-9 3-7 5-5z" fill="#FF8ED1"/>
<path transform="translate(620,1579)" d="m0 0h19l8 3 5 5 3 5v10l-3 6-8 6-6 2-11 1-8-2-6-3-7-8-1-10 4-8 6-5zm3 4-7 4-5 6v9l5 6 10 4h9l6-2 7-6 2-9-3-6-8-5-4-1z" fill="#FF8ED1"/>
<path transform="translate(1113,862)" d="m0 0v3l-3 1-2 4-95 95-3 5-2 1-1 5-7 8-30 30-5-1-1-2 7-8 22-22 8-7 8-8 7-8 10-10 8-7 7-8 8-8h2l2-4 8-7 8-9 8-7 10-10 5-6h2l2-4 5-5h2l2-4h2l2-4z" fill="#FEACDC"/>
<path transform="translate(898,1651)" d="m0 0h5v36h-8l-5-5-10-11-7-8-4-5-2-1v30h-5l-1-3v-32h9l9 9 7 8 8 9 3 3v-29z" fill="#FF8ED1"/>
<path transform="translate(968,1579)" d="m0 0 4 1 1 33-1 2-4 1-5-2-9-10-11-12-5-6-1 29h-6v-35h8l13 13 7 8 5 6 2 1v-28z" fill="#FF8ED1"/>
<path transform="translate(802,1651)" d="m0 0h18l10 4 4 5 2 4v11l-4 6-5 4-7 3-13 1-10-3-7-6-3-6v-9l4-7 8-6zm2 4-6 3-5 6-1 8 4 6 5 4 5 2h12l6-3 5-5 1-2v-10l-4-5-9-4z" fill="#FF8ED1"/>
<path transform="translate(1260,1373)" d="m0 0h2l11 27 3 10h-31l3-9 6-15z"/>
<path transform="translate(1032,694)" d="m0 0h2l-1 3-6 5-7 8-5 4-7 8h-2l-1 3-8 7-9 10h-2l-2 4h-2l-1 3-8 7-11 12-1 2h-2v2l8-6 3-3 2 1-23 23h-2v2h-2v2l-6 5v6l-5 6h-7l-5-5 1-6 3-4 8-1z" fill="#FF8ED1"/>
<path transform="translate(1054,1651)" d="m0 0 6 1 8 7 9 11 9 10 2 1v-29l1-1h5v36l-7 1-5-4v-2h-2l-9-11-9-10-4-4 1 17-1 13h-5l-1-2v-24l1-9z" fill="#FF8ED1"/>
<path transform="translate(1469,1579)" d="m0 0h6v36h-8l-7-7-7-8-9-10-4-4-1 29-2 1-3-1-1-20v-15h9l12 12 14 16 1-3z" fill="#FF8ED1"/>
<path transform="translate(1303,827)" d="m0 0 5 1 5 5-1 7-5 4-6-1-3-3h-20l-6 4-12 12-4 1h-15l-1-2h-3l-1 2h-2v-2l-2 1h-11v-1l10-1 1-1h18l1 2v-2l4-1 9-11 4-4h2v-2l4-2 21-1 5-3z" fill="#FEBDE2"/>
<path transform="translate(1435,709)" d="m0 0 5 2 4 4-1 7-3 3-4 1-6-2-1-3h-41l-42-1-2-2h3 29l11-1 3 1v-2l-38-1v-1l79-1 1-3z" fill="#FF8ED1"/>
<path transform="translate(1288,1651)" d="m0 0 4 2v12h28l1-13h6v35h-6l-1-2 1-14h-29v16l-3 1-3-1-1-3v-32z" fill="#FF8ED1"/>
<path transform="translate(629,832)" d="m0 0h72l-6 7-3 1h-68l2-4z" fill="#010002"/>
<path transform="translate(660,1651)" d="m0 0 3 1 1 13 28 1 1-15h5l1 4v30l-3 3-4-2 1-15h-29v16h-6l-1-9 1-26z" fill="#FF8ED1"/>
<path transform="translate(618,923)" d="m0 0h8l14 3 8 4 6 5 5 9v6l-5 8-6 5-10 2-4-1 7-5 3-9-2-10-6-7-16-8z" fill="#FF8ED1"/>
<path transform="translate(354,1651)" d="m0 0h5v14l29 1v-13l4-2 3 1v35h-6l-1-2 1-14h-29v16h-6l-1-2z" fill="#FF8ED1"/>
<path transform="translate(772,735)" d="m0 0 16 1 2 1-2 4-10 8-14 9-13 6-18 4-1-4 5-20 1-2h2l1 9 2 5 5 2 7-1 8-5 4-6 4-10z" fill="#FF90D2"/>
<path transform="translate(1308,1579)" d="m0 0h34l2 3-1 1h-30l1 11 25 1 2 1v3h-28v12h30l1 4h-37v-35z" fill="#FF8ED1"/>
<path transform="translate(415,1579)" d="m0 0 27 1v3l-30 1-1 11h28l1 4h-29v12h25l7 1v3h-37l-1-1v-34z" fill="#FF8ED1"/>
<path transform="translate(1049,1724)" d="m0 0h37v3h-31l1 11 27 1 1 4h-29l1 11 24 1 7 1v3h-37l-1-1z" fill="#FF8ED1"/>
<path transform="translate(888,530)" d="m0 0 1 3 2 1-63 1h-160l2-4 218 1z" fill="#4C0DCB"/>
<path transform="translate(421,1651)" d="m0 0h33l2 1v3l-29 1v10l27 1v4h-28l1 11 30 2v3h-37v-35z" fill="#FF8ED1"/>
<path transform="translate(1290,529)" d="m0 0h16l-2 5-1 1h-95l-6-1h-16l-5-1v-1l31-2z" fill="#FF95D3"/>
<path transform="translate(773,1580)" d="m0 0h37v3l-30 1-1 11h28l1 4h-29v12h21l10 1 1 3h-37l-1-1z" fill="#FF8ED1"/>
<path transform="translate(929,1651)" d="m0 0h14l21 1v3l-29 1v10l27 1v4h-28v12h23l8 1 1 3-32 1-6-1v-35z" fill="#FF8ED1"/>
<path transform="translate(1129,1651)" d="m0 0h15l9 4 2 4-2 1-9-4-5-1h-7l-5 2-1 4 1 2 12 3 11 2 7 4 1 1v7l-2 3h-2v2l-6 3h-16l-9-4-5-5v-3l5 2 8 4 4 1h12l5-3v-5l-12-3-13-3-5-3-2-4 1-5 5-5z" fill="#FF8ED1"/>
<path transform="translate(758,881)" d="m0 0h80l4 4v2h-87v-4z" fill="#FF8ED1"/>
<path transform="translate(1445,646)" d="m0 0 6 2 4 5-3 8-2 1h-7l-3-4-5-1v-2l-20 1h-43l-17-1-1-3 83-1 5-4z" fill="#FFBAE1"/>
<path transform="translate(1076,681)" d="m0 0h2l1 2h174l9 2v1h-187z" fill="#FF8ED1"/>
<path transform="translate(771,855)" d="m0 0h89l1 3-1 2-3 1h-20l-11-1-59-1 1-3z" fill="#FF94D3"/>
<path transform="translate(548,1583)" d="m0 0h20l5 2 3 3-1 7-4 3-3 1h-18l-3-3v-9z" fill="#080117"/>
<path transform="translate(1259,644)" d="m0 0h8l4 5-1 7-4 3h-6l-5-5v-2l-54-1 3-4 53-1z" fill="#FFBCE2"/>
<path transform="translate(674,511)" d="m0 0 1 3h47l107 1h29v2h-185z" fill="#4C0DCB"/>
<path transform="translate(938,695)" d="m0 0 1 2-1 3-4 2-6 7h-2l-1 4-6 5-2 3h-3l-1 3-5 5h-2l-2 4h-2l-2 4h-2l-2 4-7 8h-3l-1 3-5 5h-2l-2 4v1l8-7 2 1-24 24-5-1 2-5 14-15 12-12h2l2-4 6-5 7-8 11-11h2l2-4 7-6 7-8z" fill="#FF8ED1"/>
<path transform="translate(840,1583)" d="m0 0h20l7 2 1 1v6l-5 5h-22l-2-1v-12z" fill="#0B011F"/>
<path transform="translate(1374,1583)" d="m0 0h19l7 2 1 1v7l-4 4h-23l-1-1v-12z" fill="#0C0220"/>
<path transform="translate(1241,725)" d="m0 0h4l-2 4-3 5-6 1h-50l-1-6 1-1 54-1z" fill="#FEC9E8"/>
<path transform="translate(1507,1652)" d="m0 0h40v4l-16 1-1 30h-6l-1-30-15-1z" fill="#FF8ED1"/>
<path transform="translate(633,1651)" d="m0 0 2 1-1 4-15 1-1 30h-6l-1-30-15-1-2-3 1-1z" fill="#FF8ED1"/>
<path transform="translate(917,1723)" d="m0 0 3 1-1 4-15 1-1 30h-6v-31h-14l-3-1v-3z" fill="#FF8ED1"/>
<path transform="translate(1348,1652)" d="m0 0h40v4h-17v31h-6v-31h-15l-2-1z" fill="#FF8ED1"/>
<path transform="translate(1082,660)" d="m0 0h55l52 1-3 3h-101l-6 1-1-4z" fill="#4B0CC9"/>
<path transform="translate(1244,1580)" d="m0 0h40l-1 4h-16v31h-6v-31h-17z" fill="#FF8ED1"/>
<path transform="translate(1109,815)" d="m0 0h127 2 27v1l-11 1-12 1h-53l-19-1h-59z" fill="#FFC1E4"/>
<path transform="translate(1007,1052)" d="m0 0h12l-1 4-12 13-6 6h-12l2-4 6-8h2l2-4z" fill="#FF8ED1"/>
<path transform="translate(1176,665)" d="m0 0h13l1 2h4v2l2 1h-67-2-10l-1-3 4-1z" fill="#FFC0E3"/>
<path transform="translate(1077,655)" d="m0 0h102v1l-99 1-1 1 110 1 5-2-1 3-4 2-64-1h-47l-2-5z" fill="#FF8ED1"/>
<path transform="translate(1566,1579)" d="m0 0h5l1 4-1 27 24 1 1 4-26 1-5-1v-35z" fill="#FF8ED1"/>
<path transform="translate(1303,827)" d="m0 0 5 1 5 5-1 7-5 4-6-1-3-3-20-1v-1l13-1 2 1-2-3h-16l-6 4-2-1 3-1v-2l4-2 21-1 5-3z" fill="#FFB8E0"/>
<path transform="translate(548,1651)" d="m0 0h3l1 3v27l1 1 22 1 1 4h-31l1-35z" fill="#FF8ED1"/>
<path transform="translate(1368,806)" d="m0 0 8 1 3 3-1 7-4 5-7-2-5-3-2 1h-16l-11-1h-14l-5-1v-1h49l1-5z" fill="#FEB7E0"/>
<path transform="translate(989,1082)" d="m0 0 3 1-6 8-20 20-6-1 4-2 1-5h3l1-3h3l-1-3h3l1-6-5 2-4-1v-2h-2v-3l11-2 2 1h6l4-2 2 1z" fill="#FFBAE1"/>
<path transform="translate(772,735)" d="m0 0 16 1 2 1-2 4-10 8-9 6-6-2 6-12z" fill="#FF8FD1"/>
<path transform="translate(958,1117)" d="m0 0v3l-11 12h-16v-4l8-10z" fill="#FF92D2"/>
<path transform="translate(1346,683)" d="m0 0 9 1h1l3 1-1 3h-8l-1 3-8 7-2 2h-73v-1l21-1h27l1-1h20l4 1v-2l-4-2 6-5z" fill="#FFB5DF"/>
<path transform="translate(1053,667)" d="m0 0h8l4 5v5l-5 4-7 3-5 3v-2l-3 1-2-1-2 4-6 5v-3l3-1 2-4 6-5 2-3 2-8z" fill="#FF92D2"/>
<path transform="translate(1340,707)" d="m0 0 4 1 4 4 4 1v2h36l2 1v2h-8l-11 1h-24l-4-1-4-6-9-1-2-2 1-1z" fill="#FFBCE2"/>
<path transform="translate(1235,664)" d="m0 0h27l2 2-19 3 20 1v1h-58l-2-3 5-1h11v-1l9 1v-2z" fill="#FF90D1"/>
<path transform="translate(901,1579)" d="m0 0h6v35l-1 1h-6v-35z" fill="#FF8ED1"/>
<path transform="translate(1359,684)" d="m0 0h10v2l2-1h10l5 1 8-1 4 2v-2h4v2l8-1h14l16 2v1h-90l3-2 4-1z" fill="#FF8ED1"/>
<path transform="translate(945,1723)" d="m0 0 3 1v35h-7v-35z" fill="#FF8ED1"/>
<path transform="translate(760,873)" d="m0 0h26l2 5 10 2v1h-41z" fill="#09011A"/>
<path transform="translate(757,735)" d="m0 0h10l-2 6-4 6-5 4-6 1-3-2-1-5 2-8z" fill="#FF8ED1"/>
<path transform="translate(1622,1656)" d="m0 0 3 1 8 16v3h-19l-1-2 7-16z" fill="#0C0222"/>
<path transform="translate(1465,1655)" d="m0 0 3 3 7 16v2h-18l-3-2 8-15z" fill="#0D0225"/>
<path transform="translate(1024,1651)" d="m0 0 4 2v34l-3 1-4-1v-35z" fill="#FF8ED1"/>
<path transform="translate(1354,655)" d="m0 0h81v2h5l1 2h-87l-8 7h-3l8-8z" fill="#FF8ED1"/>
<path transform="translate(498,1656)" d="m0 0 4 2 7 15v3h-19l1-6z" fill="#0E0226"/>
<path transform="translate(755,419)" d="m0 0 5 1 2 4-5 1-20 1h-24l-1-2 3-3z" fill="#4B0CC8"/>
<path transform="translate(1521,1583)" d="m0 0 3 3 7 16v2h-17l-3-1 2-6 5-10z" fill="#0F0228"/>
<path transform="translate(1350,652)" d="m0 0h4l1 3-5 5-14 16-8 8-1-4-3-2 8-8 7-8 6-5z" fill="#FEB7E0"/>
<path transform="translate(1184,1651)" d="m0 0 4 2v34l-4 1-3-2v-34z" fill="#FF8ED1"/>
<path transform="translate(1202,1583)" d="m0 0 2 1 7 16 1 4h-18l-1-3 7-16z" fill="#0C0222"/>
<path transform="translate(926,711)" d="m0 0v3l-5 5-4 6-30 30-5 3-7 6v-3l5-5 6-7 3-1 7-8 6-7 6-5 6-7 3-1 6-7z" fill="#FFB0DD"/>
<path transform="translate(1340,528)" d="m0 0h3l2 8 1 2 9-1h19l4 2-3 3-2-1h-31l-5 1v-2l-7 1-2-4 4-1 1-3z" fill="#FF8ED1"/>
<path transform="translate(1446,677)" d="m0 0 5 1 3 3-1 8-3 3-8-1-2-2-16-2-1-4h5v3l8-1 1-2h3v-2h2l1-3z" fill="#FFB7E0"/>
<path transform="translate(889,1173)" d="m0 0h18l-1 4-8 9-2-1-15-1v-3l6-7z" fill="#FFB8E0"/>
<path transform="translate(1440,713)" d="m0 0h3l1 6-3 5-5 2-6-2-1-4h-12l-1-4-2-1h10l13-1 3 1z" fill="#FFB8E0"/>
<path transform="translate(669,531)" d="m0 0 73 1v2l-14 1h-60z" fill="#2E077B"/>
<path transform="translate(1084,811)" d="m0 0h2l-2 5-6 5-7 8-6 6h-2l-2 4-7 6-3 5-5 4h-2l-2 4-6 7-2-1 3-5 9-9 7-8 14-15 8-9 5-3z" fill="#FFB6E0"/>
<path transform="translate(1276,361)" d="m0 0h4l-2 4-7 7-9 11-6 6h-2v-5l7-6 2-3v-6-3l8-4z" fill="#FEBDE2"/>
<path transform="translate(1082,428)" d="m0 0h66v4l-2 1h-24l-1-2-9-1-30-1z" fill="#FF91D2"/>
<path transform="translate(1244,398)" d="m0 0 1 3-11 11-7 8-12 12-5 6h-2v-4h2l2-4h2l2-4 1-3 5-1 2-4 1-4 7-7h2l1-3 6-3z" fill="#FFB6E0"/>
<path transform="translate(791,840)" d="m0 0h52l1 4-2 1-2-1-54-1-3-2z" fill="#FFB3DE"/>
<path transform="translate(1112,947)" d="m0 0v3l-78 78 3 3h-6v-3z" fill="#FFA5D9"/>
<path transform="translate(936,684)" d="m0 0 4 2 6 5h3v3l-8 7-21 21v-3l4-5 2-1v-4l5-5h2l1-3 4-1 1-6 1-3-3-5z" fill="#FFB7E0"/>
<path transform="translate(1130,761)" d="m0 0 1 2-3 5-15 16-8 7-3 4h-3l1-4 10-10 7-8 6-7 5-3z" fill="#FFB8E0"/>
<path transform="translate(1292,710)" d="m0 0h38l9 1 1 2h-79l2-2z" fill="#FF8ED1"/>
<path transform="translate(1359,683)" d="m0 0h55 3l4 1 2 3h-21v-2h-4v2l-7-1-9 1-5-1h-8v-2l-4 1-6-1z" fill="#FFC1E4"/>
<path transform="translate(1264,664)" d="m0 0 4 1 8 7 2 3-2 2-4 1-7-6v-2h-22l2-2 12-2h7z" fill="#FFB4DF"/>
<path transform="translate(1335,695)" d="m0 0h5l-1 3-3 1h-7v-1h-14l-2 1h-45l3-3z" fill="#FEFEFE"/>
<path transform="translate(1354,652)" d="m0 0h59v2l-32 1h-26z" fill="#FED9EE"/>
<path transform="translate(778,856)" d="m0 0h44l6 2v1h-53l3-1z" fill="#FFBFE3"/>
<path transform="translate(1008,906)" d="m0 0h3l-2 4-10 10-5 2v-2h2v-5l-3-1h-5l-1-2h2l1-3 4-1h9z" fill="#FEBCE2"/>
<path transform="translate(1357,749)" d="m0 0h24l32 1 13 1-2 2-44-1h-22l-4 2 2-4z" fill="#FF8ED1"/>
<path transform="translate(742,532)" d="m0 0h61l-1 3-60-1z" fill="#490CC4"/>
<path transform="translate(1195,647)" d="m0 0h9l-1 3 48 1v1l-51 1-6 4-3-2-2-1z" fill="#FFA0D7"/>
<path transform="translate(775,588)" d="m0 0h23l1 4v4l-8-1-12-3-4-2z" fill="#10022C"/>
<path transform="translate(1315,697)" d="m0 0h20v1h-6v2h-63v-1l21-1h27z" fill="#FFB0DD"/>
<path transform="translate(941,1119)" d="m0 0h16l-2 4-4 5-4 2-5-1 3-4v-2l-3 4v-3l-4-2z" fill="#FFBDE2"/>
<path transform="translate(689,927)" d="m0 0h1v8l-4 10-9 11-9 8-2-1 9-9 7-11 5-13h2z" fill="#FFA9DB"/>
<path transform="translate(1183,730)" d="m0 0 1 2h47l9 1-3 2h-53z" fill="#FF8ED1"/>
<path transform="translate(756,882)" d="m0 0h31l3 2h-12l-2-1-1 3-20 1v-4z" fill="#FFC0E3"/>
<path transform="translate(649,1068)" d="m0 0h17v1l-19 3-14 7-4-2 1-3 11-4z" fill="#FFAADB"/>
<path transform="translate(1007,1052)" d="m0 0h12l-1 4-8 9h-3l-1-5 2-3-2-1z" fill="#FFB5DF"/>
<path transform="translate(930,673)" d="m0 0 7 6 9 8 2 4h-3l-3-1-2-2-1 2-9-9 2-1-2-4h-2v-2z" fill="#FF95D3"/>
<path transform="translate(799,776)" d="m0 0h48l6 1v1l-9 1-9-1h-25l-2 1h-10z" fill="#FFC1E4"/>
<path transform="translate(1113,862)" d="m0 0v3l-3 1-2 4-30 30-2-1 11-11 5-6h2l2-4 5-5h2l2-4h2l2-4z" fill="#FF9FD7"/>
<path transform="translate(1204,648)" d="m0 0h44v1l-10 1-37 1z" fill="#FEFCFD"/>
<path transform="translate(1278,883)" d="m0 0h27l20 1-1 2h-11l-12-1h-24l-2 4-7 8h-2l2-4 7-7z" fill="#FF8ED1"/>
<path transform="translate(1082,428)" d="m0 0h61v1l-22 2-9-1-30-1z" fill="#FFC1E4"/>
<path transform="translate(761,1006)" d="m0 0 4 1 10 9 2 4h-7l-8-10z" fill="#FFB1DE"/>
<path transform="translate(1314,815)" d="m0 0h48l-2 3h-16l-11-1h-14l-5-1z" fill="#FFC1E4"/>
<path transform="translate(1303,827)" d="m0 0 5 1 3 3h-3l-1 2-2-4-5 3-6 4-8-1h-11l-6 4-2-1 3-1v-2l4-2 21-1 5-3z" fill="#FF8ED1"/>
<path transform="translate(971,806)" d="m0 0v3l-21 21h-2l-2 4h-2l1-3h2l2-4 4-5h2v-2l8-7 5-5z" fill="#FF8ED1"/>
<path transform="translate(771,855)" d="m0 0h51v1h-44v2l-3 1h-8l1-3z" fill="#FF9CD6"/>
<path transform="translate(951,967)" d="m0 0h3l-1 4-8 7h-2l-2-7 5-3z" fill="#FFBBE1"/>
<path transform="translate(955,818)" d="m0 0m-1 1 1 3-5 5-7 8-8 7-4 4v-3l10-11 5-5z" fill="#FFC1E4"/>
<path transform="translate(795,619)" d="m0 0h13l12 6 4 4-9-3-9-4h-11z" fill="#FF99D5"/>
<path transform="translate(1052,1044)" d="m0 0m-32 0 9 1h10l5 1v-2h6l1 3h-36l2-2z" fill="#FFC1E4"/>
<path transform="translate(1059 1e3)" d="m0 0 2 1-27 27 3 3h-6v-3z" fill="#FFA3D8"/>
<path transform="translate(895,742)" d="m0 0v3l-4 4-3 5-6 4-7 6v-3l5-5 6-7 5-3z" fill="#FFBCE2"/>
<path transform="translate(887,883)" d="m0 0 4 2 2 5-4 4-4-1-1-6z" fill="#FEC3E6"/>
<path transform="translate(1263,644)" d="m0 0 5 1 3 4-1 7-4 3h-6l-5-5 1-2 3 1h2l2 1-2 3 4 1v-2h3v-4l-2-6z" fill="#FF8ED1"/>
<path transform="translate(669,531)" d="m0 0 27 1-1 3h-27z" fill="#4C0DCB"/>
<path transform="translate(803,856)" d="m0 0h19l6 2v1h-26z" fill="#FFC1E4"/>
<path transform="translate(1232,853)" d="m0 0h18l1 4h-10l-1-2h-3l-1 2h-2v-2l-2 1h-11v-1l10-1z" fill="#FFC1E4"/>
<path transform="translate(1352,714)" d="m0 0h43v2h3l-1 2-12-2-33-1z" fill="#FF96D4"/>
<path transform="translate(1197,531)" d="m0 0h15l-2 3h-24l-5-1v-1z" fill="#FFC1E4"/>
<path transform="translate(1236,365)" d="m0 0v3l-1 2h-2l-2 5-3 5h-2v2l-3-1 1-4 10-11z" fill="#FFB6E0"/>
<path transform="translate(889,1173)" d="m0 0h18l-1 3h-10l-9 2-4 5h-3l6-8z" fill="#FF93D2"/>
<path transform="translate(1156,1584)" d="m0 0h1l1 5v26l-2-2-1-25z" fill="#4C0DCB"/>
<path transform="translate(1131,929)" d="m0 0h15l12 1v1l-24 1-7 3-4 2 6-7z" fill="#FF8ED1"/>
<path transform="translate(1052,845)" d="m0 0v3l-5 5-3 1-2 4-6 7-2-1 3-5 12-12z" fill="#FFB2DE"/>
<path transform="translate(1136,469)" d="m0 0 3 1-7 8-5 6h-2l2-4 2-5 4-4h3z" fill="#FEB4DF"/>
<path transform="translate(713,422)" d="m0 0h14l5 2v1l-19 1-1-2z" fill="#0B011E"/>
<path transform="translate(1315,706)" d="m0 0h26l-1 2-19 1-7-1z" fill="#FF8ED1"/>
<path transform="translate(1031,533)" d="m0 0h7l-5 4-7 7-1-2 1-7z" fill="#FFBAE1"/>
<path transform="translate(936,1136)" d="m0 0h6l-2 4-3 3-4 1-2-5 5-1z" fill="#FFB6E0"/>
<path transform="translate(991,1044)" d="m0 0h24l-1 3h-15l-8-2z" fill="#FFB9E1"/>
<path transform="translate(680,947)" d="m0 0 3 1-6 8-9 8-2-1 9-9z" fill="#FF95D3"/>
<path transform="translate(1159,361)" d="m0 0 4 1-10 10h-2l1-5-1-2z" fill="#FEC2E4"/>
<path transform="translate(1237,854)" d="m0 0 5 1v1h17l-2 2-5 1h-17z" fill="#FF8ED1"/>
<path transform="translate(1435,709)" d="m0 0 5 2 1 2-1 2h-13l1-2h3l1-3z" fill="#FF91D2"/>
<path transform="translate(784,893)" d="m0 0h5v3l-5 1v2h-15l-3-2h16z" fill="#FED1EB"/>
<path transform="translate(1067,703)" d="m0 0 2 1-3 5-5 5-2 3-5 1 2-4z" fill="#FF8ED1"/>
<path transform="translate(722,532)" d="m0 0h20v2l-21 1z" fill="#3B0A9F"/>
<path transform="translate(1221,666)" d="m0 0h6l1 3-22 1v-3h15z" fill="#FFC1E4"/>
<path transform="translate(955,774)" d="m0 0h2v2h-2l-2 4-9 8-1 2h-2l2-4 4-2 2-4 5-5z" fill="#FFC1E4"/>
<path transform="translate(1274,838)" d="m0 0 4 2-6 4-10 10v-3l7-8 3-3h2z" fill="#FF8ED1"/>
<path transform="translate(989,782)" d="m0 0v3l-8 9-8 7-2-1z" fill="#FF8ED1"/>
<path transform="translate(762,753)" d="m0 0h5l-1 4-4 2h-6l1-3z" fill="#FFB1DE"/>
<path transform="translate(890,1044)" d="m0 0h8v2l-8 1-5 4-2-1 1-3h2v-2z" fill="#FFBDE2"/>
<path transform="translate(938,681)" d="m0 0 8 6 2 4h-3l-3-1-4-5-2-2z" fill="#FF8ED1"/>
<path transform="translate(1232,1039)" d="m0 0 3 1 3 6h-2l-1 3h-2l-2-5z" fill="#FEFEFE"/>
<path transform="translate(965,762)" d="m0 0v3l-4 5h-2v4l-5 2-4 2 6-7z" fill="#FF92D2"/>
<path transform="translate(872,1208)" d="m0 0h3l-1 4-6 6h-2l2-6z" fill="#FFB4DF"/>
<path transform="translate(649,1068)" d="m0 0h17v1l-14 2-8-1v-1z" fill="#FF8FD1"/>
<path transform="translate(1113,862)" d="m0 0v3l-3 1-2 4-7 7h-2l2-4h2l2-4h2l2-4z" fill="#FF8ED1"/>
<path transform="translate(807,831)" d="m0 0 9 1-1 4h-7z" fill="#FFB4DF"/>
<path transform="translate(990,787)" d="m0 0 2 1-14 14h-2l1-3 6-5 5-6z" fill="#FF8ED1"/>
<path transform="translate(1288,837)" d="m0 0h10l2 3h-10l-12-1v-1z" fill="#FF8ED1"/>
<path transform="translate(1366,809)" d="m0 0h3v2h3l1-2 1 3-5 1-1 4h-2v-2h-2z" fill="#FEFEFE"/>
<path transform="translate(979,1729)" d="m0 0 3 2v2h-2v26h-1z" fill="#4C0DCB"/>
<path transform="translate(1013,758)" d="m0 0v3l-8 9-5 4-2-1z" fill="#FF8ED1"/>
<path transform="translate(1382,683)" d="m0 0h11l1 2-11 2-2-1z" fill="#FFBFE3"/>
<path transform="translate(926,997)" d="m0 0 1 3-6 7h-2l1-6z" fill="#FFB2DE"/>
<path transform="translate(922,1154)" d="m0 0 2 1-2 4-2 2-5 1 2-5z" fill="#FFB7E0"/>
<path transform="translate(958,1117)" d="m0 0v3h-17l-4 2 2-4z" fill="#FF8ED1"/>
<path transform="translate(932,707)" d="m0 0 2 1-14 14v-3l4-5z" fill="#FF8ED1"/>
<path transform="translate(724,1681)" d="m0 0h3l3 4v4l-5-2-1-1z" fill="#FF9DD6"/>
<path transform="translate(866,770)" d="m0 0 2 1-7 8h-4l2-4z" fill="#FFC1E4"/>
<path transform="translate(1241,725)" d="m0 0h4l-2 4-4 3h-2l1-5z" fill="#FEF0F8"/>
<path transform="translate(837,776)" d="m0 0h10l6 1v1l-9 1-7-1z" fill="#FFC1E4"/>
<path transform="translate(1131,774)" d="m0 0h2l-2 4-6 7h-2v-2h2l1-4z" fill="#FFB2DE"/>
<path transform="translate(1221,931)" d="m0 0 7 1 2 2h-15l4-2z" fill="#FFC1E4"/>
<path transform="translate(789,865)" d="m0 0h5v4h-2v2l-3 1v-3l-1-2z" fill="#FFBFE3"/>
<path transform="translate(1040,730)" d="m0 0h2l-2 4-7 7h-2l1-3 4-4h2z" fill="#FF8ED1"/>
<path transform="translate(1055,717)" d="m0 0m-3 1 3 1-12 12v-3l7-7z" fill="#FFA7DA"/>
<path transform="translate(1020,1044)" d="m0 0 9 2v1h-14l2-2z" fill="#FFBBE1"/>
<path transform="translate(794,871)" d="m0 0 4 2-1 4-3 1-2-4z" fill="#FFC1E4"/>
<path transform="translate(799,776)" d="m0 0h9v3h-10z" fill="#FFBBE1"/>
<path transform="translate(800,588)" d="m0 0 3 1-1 7-4-2z" fill="#FFBBE1"/>
<path transform="translate(795,619)" d="m0 0h8l3 2-4 1h-7z" fill="#FFC1E4"/>
</svg>
